<?xml version="1.0" encoding="UTF-8"?><svg xmlns="http://www.w3.org/2000/svg" xmlns:xlink="http://www.w3.org/1999/xlink" width="375pt" zoomAndPan="magnify" viewBox="0 0 375 374.999991" height="374.999991pt" preserveAspectRatio="xMidYMid meet" version="1.2"><defs><clipPath xml:id="clip1" id="clip1"><path d="M 82.433594 82.433594 L 292.433594 82.433594 L 292.433594 292.433594 L 82.433594 292.433594 Z M 82.433594 82.433594 "/></clipPath><clipPath xml:id="clip2" id="clip2"><path d="M 205 112.5 L 235 112.5 L 235 143 L 205 143 Z M 205 112.5 "/></clipPath><clipPath xml:id="clip3" id="clip3"><path d="M 118.5 196 L 180 196 L 180 226 L 118.5 226 Z M 118.5 196 "/></clipPath><clipPath xml:id="clip4" id="clip4"><path d="M 213 161 L 256.5 161 L 256.5 187 L 213 187 Z M 213 161 "/></clipPath><clipPath xml:id="clip5" id="clip5"><path d="M 247 154 L 277 154 L 277 184 L 247 184 Z M 247 154 "/></clipPath><clipPath xml:id="clip6" id="clip6"><path d="M 253.664062 151.113281 L 280.140625 168.183594 L 265.101562 191.503906 L 238.628906 174.4375 Z M 253.664062 151.113281 "/></clipPath><clipPath xml:id="clip7" id="clip7"><path d="M 253.664062 151.113281 L 280.140625 168.183594 L 265.101562 191.503906 L 238.628906 174.4375 Z M 253.664062 151.113281 "/></clipPath><clipPath xml:id="clip8" id="clip8"><path d="M 253.664062 151.113281 L 280.140625 168.183594 L 265.101562 191.503906 L 238.628906 174.4375 Z M 253.664062 151.113281 "/></clipPath></defs><g xml:id="surface1" id="surface1"><rect x="0" width="375" y="0" height="374.999991" style="fill:rgb(100%,100%,100%);fill-opacity:1;stroke:none;"/><rect x="0" width="375" y="0" height="374.999991" style="fill:rgb(100%,100%,100%);fill-opacity:1;stroke:none;"/><rect x="0" width="375" y="0" height="374.999991" style="fill:rgb(100%,100%,100%);fill-opacity:1;stroke:none;"/><g clip-rule="nonzero" clip-path="url(#clip1)"><path style=" stroke:none;fill-rule:nonzero;fill:rgb(100%,100%,100%);fill-opacity:1;" d="M 292.433594 187.433594 C 292.433594 189.152344 292.390625 190.871094 292.308594 192.585938 C 292.222656 194.304688 292.097656 196.015625 291.929688 197.726562 C 291.761719 199.4375 291.550781 201.140625 291.296875 202.839844 C 291.046875 204.539062 290.753906 206.234375 290.417969 207.917969 C 290.082031 209.605469 289.707031 211.28125 289.289062 212.949219 C 288.871094 214.613281 288.410156 216.269531 287.914062 217.914062 C 287.414062 219.558594 286.875 221.191406 286.296875 222.808594 C 285.71875 224.425781 285.097656 226.027344 284.441406 227.617188 C 283.785156 229.203125 283.089844 230.773438 282.351562 232.328125 C 281.617188 233.882812 280.847656 235.414062 280.035156 236.929688 C 279.226562 238.445312 278.378906 239.941406 277.496094 241.414062 C 276.613281 242.890625 275.695312 244.339844 274.738281 245.769531 C 273.785156 247.199219 272.792969 248.601562 271.769531 249.984375 C 270.746094 251.363281 269.691406 252.71875 268.601562 254.046875 C 267.511719 255.375 266.386719 256.675781 265.234375 257.949219 C 264.082031 259.222656 262.894531 260.464844 261.679688 261.679688 C 260.464844 262.894531 259.222656 264.082031 257.949219 265.234375 C 256.675781 266.386719 255.375 267.511719 254.046875 268.601562 C 252.71875 269.691406 251.363281 270.746094 249.984375 271.769531 C 248.601562 272.792969 247.199219 273.785156 245.769531 274.738281 C 244.339844 275.695312 242.890625 276.613281 241.414062 277.496094 C 239.941406 278.378906 238.445312 279.226562 236.929688 280.035156 C 235.414062 280.847656 233.882812 281.617188 232.328125 282.351562 C 230.773438 283.089844 229.203125 283.785156 227.617188 284.441406 C 226.027344 285.097656 224.425781 285.71875 222.808594 286.296875 C 221.191406 286.875 219.558594 287.414062 217.914062 287.914062 C 216.269531 288.410156 214.613281 288.871094 212.949219 289.289062 C 211.28125 289.707031 209.605469 290.082031 207.917969 290.417969 C 206.234375 290.753906 204.539062 291.046875 202.839844 291.296875 C 201.140625 291.550781 199.4375 291.761719 197.726562 291.929688 C 196.015625 292.097656 194.304688 292.222656 192.585938 292.308594 C 190.871094 292.390625 189.152344 292.433594 187.433594 292.433594 C 185.714844 292.433594 184 292.390625 182.28125 292.308594 C 180.566406 292.222656 178.851562 292.097656 177.144531 291.929688 C 175.433594 291.761719 173.726562 291.550781 172.027344 291.296875 C 170.328125 291.046875 168.636719 290.753906 166.949219 290.417969 C 165.265625 290.082031 163.589844 289.707031 161.921875 289.289062 C 160.253906 288.871094 158.597656 288.410156 156.953125 287.914062 C 155.308594 287.414062 153.679688 286.875 152.0625 286.296875 C 150.441406 285.71875 148.839844 285.097656 147.253906 284.441406 C 145.664062 283.785156 144.09375 283.089844 142.542969 282.351562 C 140.988281 281.617188 139.453125 280.847656 137.9375 280.035156 C 136.421875 279.226562 134.925781 278.378906 133.453125 277.496094 C 131.980469 276.613281 130.527344 275.695312 129.097656 274.738281 C 127.671875 273.785156 126.265625 272.792969 124.886719 271.769531 C 123.503906 270.746094 122.152344 269.691406 120.824219 268.601562 C 119.496094 267.511719 118.195312 266.386719 116.921875 265.234375 C 115.648438 264.082031 114.402344 262.894531 113.1875 261.679688 C 111.972656 260.464844 110.789062 259.222656 109.632812 257.949219 C 108.480469 256.675781 107.359375 255.375 106.269531 254.046875 C 105.179688 252.71875 104.121094 251.363281 103.097656 249.984375 C 102.074219 248.601562 101.085938 247.199219 100.128906 245.769531 C 99.175781 244.339844 98.257812 242.890625 97.371094 241.414062 C 96.488281 239.941406 95.644531 238.445312 94.832031 236.929688 C 94.023438 235.414062 93.25 233.882812 92.515625 232.328125 C 91.78125 230.773438 91.085938 229.203125 90.425781 227.617188 C 89.769531 226.027344 89.152344 224.425781 88.570312 222.808594 C 87.992188 221.191406 87.453125 219.558594 86.957031 217.914062 C 86.457031 216.269531 86 214.613281 85.582031 212.949219 C 85.164062 211.28125 84.789062 209.605469 84.453125 207.917969 C 84.117188 206.234375 83.824219 204.539062 83.570312 202.839844 C 83.320312 201.140625 83.109375 199.4375 82.941406 197.726562 C 82.773438 196.015625 82.644531 194.304688 82.5625 192.585938 C 82.476562 190.871094 82.433594 189.152344 82.433594 187.433594 C 82.433594 185.714844 82.476562 184 82.5625 182.28125 C 82.644531 180.566406 82.773438 178.851562 82.941406 177.144531 C 83.109375 175.433594 83.320312 173.726562 83.570312 172.027344 C 83.824219 170.328125 84.117188 168.636719 84.453125 166.949219 C 84.789062 165.265625 85.164062 163.589844 85.582031 161.921875 C 86 160.253906 86.457031 158.597656 86.957031 156.953125 C 87.453125 155.308594 87.992188 153.679688 88.570312 152.0625 C 89.152344 150.441406 89.769531 148.839844 90.425781 147.253906 C 91.085938 145.664062 91.78125 144.09375 92.515625 142.542969 C 93.25 140.988281 94.023438 139.453125 94.832031 137.9375 C 95.644531 136.421875 96.488281 134.925781 97.371094 133.453125 C 98.257812 131.980469 99.175781 130.527344 100.128906 129.097656 C 101.085938 127.671875 102.074219 126.265625 103.097656 124.886719 C 104.121094 123.503906 105.179688 122.152344 106.269531 120.824219 C 107.359375 119.496094 108.480469 118.195312 109.632812 116.921875 C 110.789062 115.648438 111.972656 114.402344 113.1875 113.1875 C 114.402344 111.972656 115.648438 110.789062 116.921875 109.632812 C 118.195312 108.480469 119.496094 107.359375 120.824219 106.269531 C 122.152344 105.179688 123.503906 104.121094 124.886719 103.097656 C 126.265625 102.074219 127.671875 101.085938 129.097656 100.128906 C 130.527344 99.175781 131.980469 98.257812 133.453125 97.371094 C 134.925781 96.488281 136.421875 95.644531 137.9375 94.832031 C 139.453125 94.023438 140.988281 93.25 142.542969 92.515625 C 144.09375 91.78125 145.664062 91.085938 147.253906 90.425781 C 148.839844 89.769531 150.441406 89.152344 152.0625 88.574219 C 153.679688 87.992188 155.308594 87.453125 156.953125 86.957031 C 158.597656 86.457031 160.253906 86 161.921875 85.582031 C 163.589844 85.164062 165.265625 84.789062 166.949219 84.453125 C 168.636719 84.117188 170.328125 83.824219 172.027344 83.570312 C 173.726562 83.320312 175.433594 83.109375 177.144531 82.941406 C 178.851562 82.773438 180.566406 82.644531 182.28125 82.5625 C 184 82.476562 185.714844 82.433594 187.433594 82.433594 C 189.152344 82.433594 190.871094 82.476562 192.585938 82.5625 C 194.304688 82.644531 196.015625 82.773438 197.726562 82.941406 C 199.4375 83.109375 201.140625 83.320312 202.839844 83.570312 C 204.539062 83.824219 206.234375 84.117188 207.917969 84.453125 C 209.605469 84.789062 211.28125 85.164062 212.949219 85.582031 C 214.613281 86 216.269531 86.457031 217.914062 86.957031 C 219.558594 87.453125 221.191406 87.992188 222.808594 88.574219 C 224.425781 89.152344 226.027344 89.769531 227.617188 90.425781 C 229.203125 91.085938 230.773438 91.78125 232.328125 92.515625 C 233.882812 93.25 235.414062 94.023438 236.929688 94.832031 C 238.445312 95.644531 239.941406 96.488281 241.414062 97.371094 C 242.890625 98.257812 244.339844 99.175781 245.769531 100.128906 C 247.199219 101.085938 248.601562 102.074219 249.984375 103.097656 C 251.363281 104.121094 252.71875 105.179688 254.046875 106.269531 C 255.375 107.359375 256.675781 108.480469 257.949219 109.632812 C 259.222656 110.789062 260.464844 111.972656 261.679688 113.1875 C 262.894531 114.402344 264.082031 115.648438 265.234375 116.921875 C 266.386719 118.195312 267.511719 119.496094 268.601562 120.824219 C 269.691406 122.152344 270.746094 123.503906 271.769531 124.886719 C 272.792969 126.265625 273.785156 127.671875 274.738281 129.097656 C 275.695312 130.527344 276.613281 131.980469 277.496094 133.453125 C 278.378906 134.925781 279.226562 136.421875 280.035156 137.9375 C 280.847656 139.453125 281.617188 140.988281 282.351562 142.542969 C 283.089844 144.09375 283.785156 145.664062 284.441406 147.253906 C 285.097656 148.839844 285.71875 150.441406 286.296875 152.0625 C 286.875 153.679688 287.414062 155.308594 287.914062 156.953125 C 288.410156 158.597656 288.871094 160.253906 289.289062 161.921875 C 289.707031 163.589844 290.082031 165.265625 290.417969 166.949219 C 290.753906 168.636719 291.046875 170.328125 291.296875 172.027344 C 291.550781 173.726562 291.761719 175.433594 291.929688 177.144531 C 292.097656 178.851562 292.222656 180.566406 292.308594 182.28125 C 292.390625 184 292.433594 185.714844 292.433594 187.433594 Z M 292.433594 187.433594 "/></g><g clip-rule="nonzero" clip-path="url(#clip2)"><path style=" stroke:none;fill-rule:nonzero;fill:rgb(12.939453%,19.999695%,40.779114%);fill-opacity:1;" d="M 205.136719 127.449219 C 205.136719 135.683594 211.808594 142.363281 220.039062 142.363281 C 228.285156 142.363281 234.957031 135.683594 234.957031 127.449219 C 234.957031 119.222656 228.285156 112.542969 220.039062 112.542969 C 211.808594 112.542969 205.136719 119.222656 205.136719 127.449219 Z M 205.136719 127.449219 "/></g><path style=" stroke:none;fill-rule:nonzero;fill:rgb(12.939453%,19.999695%,40.779114%);fill-opacity:1;" d="M 216.550781 206.289062 L 195.964844 192.183594 L 216.914062 158.625 C 218.113281 156.835938 218.945312 152.054688 217.160156 150.851562 L 205.394531 142.949219 C 204.574219 142.246094 203.589844 141.707031 202.460938 141.460938 L 178.925781 136.34375 C 177.109375 135.964844 175.230469 136.320312 173.695312 137.351562 L 151.996094 153.964844 C 148.820312 156.714844 145.769531 160.15625 147.867188 163.253906 C 149.210938 165.253906 153.804688 164.113281 156.214844 162.648438 L 178.871094 150.203125 L 192.242188 153.117188 L 174.210938 179.914062 C 170.074219 187.074219 168.699219 192.59375 176.140625 198.929688 L 201.769531 215.878906 L 189.296875 245.417969 C 185.257812 255.113281 185.980469 260.085938 188.75 261.257812 C 191.515625 262.429688 195.585938 261.082031 201.339844 250.53125 L 219.386719 216.308594 C 220.984375 212.726562 219.789062 208.515625 216.550781 206.289062 Z M 216.550781 206.289062 "/><g clip-rule="nonzero" clip-path="url(#clip3)"><path style=" stroke:none;fill-rule:nonzero;fill:rgb(12.939453%,19.999695%,40.779114%);fill-opacity:1;" d="M 172.847656 203.902344 L 172.546875 203.703125 L 172.273438 203.46875 C 169.667969 201.25 167.929688 199.007812 166.773438 196.804688 L 158.148438 209.285156 C 158.148438 209.285156 134.785156 210.695312 127.53125 211.117188 C 121.984375 211.441406 118.648438 213.515625 118.648438 217.113281 C 118.648438 220.707031 121.457031 222.730469 129.457031 223.371094 C 136.199219 223.914062 162.34375 225.316406 162.34375 225.316406 C 162.371094 225.316406 162.398438 225.316406 162.414062 225.316406 C 165.105469 225.316406 167.929688 223.886719 169.78125 221.152344 L 179.003906 207.976562 Z M 172.847656 203.902344 "/></g><g clip-rule="nonzero" clip-path="url(#clip4)"><path style=" stroke:none;fill-rule:nonzero;fill:rgb(12.939453%,19.999695%,40.779114%);fill-opacity:1;" d="M 247.769531 175.992188 L 228.066406 174.578125 L 222.214844 161.320312 C 222.121094 161.488281 222.035156 161.691406 221.9375 161.84375 L 213.710938 175.015625 L 216.507812 181.714844 C 217.472656 183.886719 219.671875 185.992188 222.03125 186.277344 C 222.03125 186.277344 241.59375 185.921875 246.09375 185.675781 C 250.832031 185.417969 256.128906 184.53125 256.246094 181.289062 C 256.417969 176.640625 252.03125 176.300781 247.769531 175.992188 Z M 247.769531 175.992188 "/></g><g clip-rule="nonzero" clip-path="url(#clip5)"><g clip-rule="nonzero" clip-path="url(#clip6)"><g clip-rule="nonzero" clip-path="url(#clip7)"><g clip-rule="nonzero" clip-path="url(#clip8)"><path style=" stroke:none;fill-rule:nonzero;fill:rgb(92.939758%,10.978699%,14.118958%);fill-opacity:1;" d="M 273.128906 164.085938 C 269.347656 161.230469 264.667969 163.117188 264.667969 163.117188 C 264.667969 163.117188 264.449219 158.074219 260.292969 155.808594 C 256.132812 153.539062 251.464844 154.523438 248.871094 159.816406 C 245.070312 167.582031 251.125 182.472656 251.875 182.957031 C 252.625 183.441406 268.6875 182.808594 274.191406 176.144531 C 277.941406 171.597656 276.914062 166.9375 273.128906 164.085938 "/></g></g></g></g></g></svg>