<?xml version="1.0" encoding="UTF-8"?><svg xmlns="http://www.w3.org/2000/svg" xmlns:xlink="http://www.w3.org/1999/xlink" contentScriptType="text/ecmascript" width="375pt" zoomAndPan="magnify" contentStyleType="text/css" viewBox="0 0 375 374.999991" height="374.999991pt" preserveAspectRatio="xMidYMid meet" version="1.2"><defs><clipPath xml:id="clip1" id="clip1"><path d="M 82.433594 82.433594 L 292.304688 82.433594 L 292.304688 292.304688 L 82.433594 292.304688 Z M 82.433594 82.433594 "/></clipPath><clipPath xml:id="clip2" id="clip2"><path d="M 205 112.5 L 235 112.5 L 235 143 L 205 143 Z M 205 112.5 "/></clipPath><clipPath xml:id="clip3" id="clip3"><path d="M 118.5 196 L 180 196 L 180 226 L 118.5 226 Z M 118.5 196 "/></clipPath><clipPath xml:id="clip4" id="clip4"><path d="M 213 161 L 256.5 161 L 256.5 187 L 213 187 Z M 213 161 "/></clipPath><clipPath xml:id="clip5" id="clip5"><path d="M 247 154 L 277 154 L 277 184 L 247 184 Z M 247 154 "/></clipPath><clipPath xml:id="clip6" id="clip6"><path d="M 253.664062 151.113281 L 280.140625 168.183594 L 265.101562 191.503906 L 238.628906 174.4375 Z M 253.664062 151.113281 "/></clipPath><clipPath xml:id="clip7" id="clip7"><path d="M 253.664062 151.113281 L 280.140625 168.183594 L 265.101562 191.503906 L 238.628906 174.4375 Z M 253.664062 151.113281 "/></clipPath><clipPath xml:id="clip8" id="clip8"><path d="M 253.664062 151.113281 L 280.101562 168.15625 L 264.875 191.769531 L 238.441406 174.726562 Z M 253.664062 151.113281 "/></clipPath></defs><g xml:id="surface1" id="surface1"><g clip-rule="nonzero" clip-path="url(#clip1)"><path style=" stroke:none;fill-rule:nonzero;fill:rgb(100%,100%,100%);fill-opacity:1;" d="M 292.304688 187.371094 C 292.304688 189.085938 292.261719 190.804688 292.179688 192.519531 C 292.09375 194.234375 291.96875 195.945312 291.800781 197.65625 C 291.632812 199.363281 291.421875 201.070312 291.167969 202.765625 C 290.917969 204.464844 290.625 206.15625 290.289062 207.84375 C 289.953125 209.527344 289.578125 211.203125 289.160156 212.867188 C 288.742188 214.53125 288.285156 216.1875 287.785156 217.832031 C 287.289062 219.472656 286.75 221.105469 286.171875 222.722656 C 285.59375 224.339844 284.976562 225.941406 284.316406 227.527344 C 283.660156 229.113281 282.964844 230.683594 282.230469 232.234375 C 281.496094 233.789062 280.722656 235.320312 279.914062 236.835938 C 279.105469 238.351562 278.257812 239.84375 277.375 241.316406 C 276.492188 242.789062 275.574219 244.242188 274.621094 245.667969 C 273.667969 247.097656 272.679688 248.5 271.65625 249.878906 C 270.632812 251.257812 269.574219 252.613281 268.484375 253.941406 C 267.398438 255.269531 266.277344 256.566406 265.121094 257.839844 C 263.96875 259.113281 262.785156 260.355469 261.570312 261.570312 C 260.355469 262.785156 259.113281 263.96875 257.839844 265.121094 C 256.566406 266.277344 255.269531 267.398438 253.941406 268.484375 C 252.613281 269.574219 251.257812 270.632812 249.878906 271.65625 C 248.5 272.679688 247.097656 273.667969 245.667969 274.621094 C 244.242188 275.574219 242.789062 276.492188 241.316406 277.375 C 239.84375 278.257812 238.351562 279.105469 236.835938 279.914062 C 235.320312 280.722656 233.789062 281.496094 232.234375 282.230469 C 230.683594 282.964844 229.113281 283.660156 227.527344 284.316406 C 225.941406 284.976562 224.339844 285.59375 222.722656 286.171875 C 221.105469 286.75 219.472656 287.289062 217.832031 287.785156 C 216.1875 288.285156 214.53125 288.742188 212.867188 289.160156 C 211.203125 289.578125 209.527344 289.953125 207.84375 290.289062 C 206.15625 290.625 204.464844 290.917969 202.765625 291.167969 C 201.070312 291.421875 199.363281 291.632812 197.65625 291.800781 C 195.945312 291.96875 194.234375 292.09375 192.519531 292.179688 C 190.804688 292.261719 189.085938 292.304688 187.371094 292.304688 C 185.652344 292.304688 183.9375 292.261719 182.222656 292.179688 C 180.503906 292.09375 178.792969 291.96875 177.085938 291.800781 C 175.375 291.632812 173.671875 291.421875 171.972656 291.167969 C 170.273438 290.917969 168.582031 290.625 166.898438 290.289062 C 165.214844 289.953125 163.539062 289.578125 161.871094 289.160156 C 160.207031 288.742188 158.550781 288.285156 156.910156 287.785156 C 155.265625 287.289062 153.636719 286.75 152.019531 286.171875 C 150.402344 285.59375 148.800781 284.976562 147.210938 284.316406 C 145.625 283.660156 144.058594 282.964844 142.503906 282.230469 C 140.953125 281.496094 139.417969 280.722656 137.902344 279.914062 C 136.390625 279.105469 134.894531 278.257812 133.421875 277.375 C 131.949219 276.492188 130.5 275.574219 129.070312 274.621094 C 127.644531 273.667969 126.238281 272.679688 124.859375 271.65625 C 123.480469 270.632812 122.128906 269.574219 120.800781 268.484375 C 119.472656 267.398438 118.171875 266.277344 116.898438 265.121094 C 115.628906 263.96875 114.382812 262.785156 113.167969 261.570312 C 111.953125 260.355469 110.769531 259.113281 109.617188 257.839844 C 108.464844 256.566406 107.34375 255.269531 106.253906 253.941406 C 105.164062 252.613281 104.109375 251.257812 103.085938 249.878906 C 102.0625 248.5 101.074219 247.097656 100.121094 245.667969 C 99.164062 244.242188 98.246094 242.789062 97.363281 241.316406 C 96.480469 239.84375 95.632812 238.351562 94.824219 236.835938 C 94.015625 235.320312 93.242188 233.789062 92.507812 232.234375 C 91.773438 230.683594 91.078125 229.113281 90.421875 227.527344 C 89.765625 225.941406 89.148438 224.339844 88.570312 222.722656 C 87.988281 221.105469 87.453125 219.472656 86.953125 217.832031 C 86.453125 216.1875 85.996094 214.53125 85.578125 212.867188 C 85.160156 211.203125 84.785156 209.527344 84.449219 207.84375 C 84.117188 206.15625 83.820312 204.464844 83.570312 202.765625 C 83.316406 201.070312 83.109375 199.363281 82.941406 197.65625 C 82.769531 195.945312 82.644531 194.234375 82.5625 192.519531 C 82.476562 190.804688 82.433594 189.085938 82.433594 187.371094 C 82.433594 185.652344 82.476562 183.9375 82.5625 182.222656 C 82.644531 180.503906 82.769531 178.792969 82.941406 177.085938 C 83.109375 175.375 83.316406 173.671875 83.570312 171.972656 C 83.820312 170.273438 84.117188 168.582031 84.449219 166.898438 C 84.785156 165.214844 85.160156 163.539062 85.578125 161.871094 C 85.996094 160.207031 86.453125 158.550781 86.953125 156.910156 C 87.453125 155.265625 87.988281 153.636719 88.570312 152.019531 C 89.148438 150.402344 89.765625 148.800781 90.421875 147.210938 C 91.078125 145.625 91.773438 144.058594 92.507812 142.503906 C 93.242188 140.953125 94.015625 139.417969 94.824219 137.902344 C 95.632812 136.390625 96.480469 134.894531 97.363281 133.421875 C 98.246094 131.949219 99.164062 130.5 100.121094 129.070312 C 101.074219 127.644531 102.0625 126.238281 103.085938 124.859375 C 104.109375 123.480469 105.164062 122.128906 106.253906 120.800781 C 107.34375 119.472656 108.464844 118.171875 109.617188 116.898438 C 110.769531 115.628906 111.953125 114.382812 113.167969 113.167969 C 114.382812 111.953125 115.628906 110.769531 116.898438 109.617188 C 118.171875 108.464844 119.472656 107.34375 120.800781 106.253906 C 122.128906 105.164062 123.480469 104.109375 124.859375 103.085938 C 126.238281 102.0625 127.644531 101.074219 129.070312 100.121094 C 130.5 99.164062 131.949219 98.246094 133.421875 97.363281 C 134.894531 96.480469 136.390625 95.632812 137.902344 94.824219 C 139.417969 94.015625 140.953125 93.242188 142.503906 92.507812 C 144.058594 91.773438 145.625 91.078125 147.210938 90.421875 C 148.800781 89.765625 150.402344 89.148438 152.019531 88.570312 C 153.636719 87.988281 155.265625 87.453125 156.910156 86.953125 C 158.550781 86.453125 160.207031 85.996094 161.871094 85.578125 C 163.539062 85.160156 165.214844 84.785156 166.898438 84.449219 C 168.582031 84.117188 170.273438 83.820312 171.972656 83.570312 C 173.671875 83.316406 175.375 83.109375 177.085938 82.941406 C 178.792969 82.769531 180.503906 82.644531 182.222656 82.5625 C 183.9375 82.476562 185.652344 82.433594 187.371094 82.433594 C 189.085938 82.433594 190.804688 82.476562 192.519531 82.5625 C 194.234375 82.644531 195.945312 82.769531 197.65625 82.941406 C 199.363281 83.109375 201.070312 83.316406 202.765625 83.570312 C 204.464844 83.820312 206.15625 84.117188 207.84375 84.449219 C 209.527344 84.785156 211.203125 85.160156 212.867188 85.578125 C 214.53125 85.996094 216.1875 86.453125 217.832031 86.953125 C 219.472656 87.453125 221.105469 87.988281 222.722656 88.570312 C 224.339844 89.148438 225.941406 89.765625 227.527344 90.421875 C 229.113281 91.078125 230.683594 91.773438 232.234375 92.507812 C 233.789062 93.242188 235.320312 94.015625 236.835938 94.824219 C 238.351562 95.632812 239.84375 96.480469 241.316406 97.363281 C 242.789062 98.246094 244.242188 99.164062 245.667969 100.121094 C 247.097656 101.074219 248.5 102.0625 249.878906 103.085938 C 251.257812 104.109375 252.613281 105.164062 253.941406 106.253906 C 255.269531 107.34375 256.566406 108.464844 257.839844 109.617188 C 259.113281 110.769531 260.355469 111.953125 261.570312 113.167969 C 262.785156 114.382812 263.96875 115.628906 265.121094 116.898438 C 266.277344 118.171875 267.398438 119.472656 268.484375 120.800781 C 269.574219 122.128906 270.632812 123.480469 271.65625 124.859375 C 272.679688 126.238281 273.667969 127.644531 274.621094 129.070312 C 275.574219 130.5 276.492188 131.949219 277.375 133.421875 C 278.257812 134.894531 279.105469 136.390625 279.914062 137.902344 C 280.722656 139.417969 281.496094 140.953125 282.230469 142.503906 C 282.964844 144.058594 283.660156 145.625 284.316406 147.210938 C 284.976562 148.800781 285.59375 150.402344 286.171875 152.019531 C 286.75 153.636719 287.289062 155.265625 287.785156 156.910156 C 288.285156 158.550781 288.742188 160.207031 289.160156 161.871094 C 289.578125 163.539062 289.953125 165.214844 290.289062 166.898438 C 290.625 168.582031 290.917969 170.273438 291.167969 171.972656 C 291.421875 173.671875 291.632812 175.375 291.800781 177.085938 C 291.96875 178.792969 292.09375 180.503906 292.179688 182.222656 C 292.261719 183.9375 292.304688 185.652344 292.304688 187.371094 Z M 292.304688 187.371094 "/></g><g clip-rule="nonzero" clip-path="url(#clip2)"><path style=" stroke:none;fill-rule:nonzero;fill:rgb(12.939453%,19.999695%,40.779114%);fill-opacity:1;" d="M 205.136719 127.449219 C 205.136719 135.683594 211.808594 142.363281 220.039062 142.363281 C 228.285156 142.363281 234.957031 135.683594 234.957031 127.449219 C 234.957031 119.222656 228.285156 112.542969 220.039062 112.542969 C 211.808594 112.542969 205.136719 119.222656 205.136719 127.449219 Z M 205.136719 127.449219 "/></g><path style=" stroke:none;fill-rule:nonzero;fill:rgb(12.939453%,19.999695%,40.779114%);fill-opacity:1;" d="M 216.550781 206.289062 L 195.964844 192.183594 L 216.914062 158.625 C 218.113281 156.835938 218.945312 152.054688 217.160156 150.851562 L 205.394531 142.949219 C 204.574219 142.246094 203.589844 141.707031 202.460938 141.460938 L 178.925781 136.34375 C 177.109375 135.964844 175.230469 136.320312 173.695312 137.351562 L 151.996094 153.964844 C 148.820312 156.714844 145.769531 160.15625 147.867188 163.253906 C 149.210938 165.253906 153.804688 164.113281 156.214844 162.648438 L 178.871094 150.203125 L 192.242188 153.117188 L 174.210938 179.914062 C 170.074219 187.074219 168.699219 192.59375 176.140625 198.929688 L 201.769531 215.878906 L 189.296875 245.417969 C 185.257812 255.113281 185.980469 260.085938 188.75 261.257812 C 191.515625 262.429688 195.585938 261.082031 201.339844 250.53125 L 219.386719 216.308594 C 220.984375 212.726562 219.789062 208.515625 216.550781 206.289062 Z M 216.550781 206.289062 "/><g clip-rule="nonzero" clip-path="url(#clip3)"><path style=" stroke:none;fill-rule:nonzero;fill:rgb(12.939453%,19.999695%,40.779114%);fill-opacity:1;" d="M 172.847656 203.902344 L 172.546875 203.703125 L 172.273438 203.46875 C 169.667969 201.25 167.929688 199.007812 166.773438 196.804688 L 158.148438 209.285156 C 158.148438 209.285156 134.785156 210.695312 127.53125 211.117188 C 121.984375 211.441406 118.648438 213.515625 118.648438 217.113281 C 118.648438 220.707031 121.457031 222.730469 129.457031 223.371094 C 136.199219 223.914062 162.34375 225.316406 162.34375 225.316406 C 162.371094 225.316406 162.398438 225.316406 162.414062 225.316406 C 165.105469 225.316406 167.929688 223.886719 169.78125 221.152344 L 179.003906 207.976562 Z M 172.847656 203.902344 "/></g><g clip-rule="nonzero" clip-path="url(#clip4)"><path style=" stroke:none;fill-rule:nonzero;fill:rgb(12.939453%,19.999695%,40.779114%);fill-opacity:1;" d="M 247.769531 175.992188 L 228.066406 174.578125 L 222.214844 161.320312 C 222.121094 161.488281 222.035156 161.691406 221.9375 161.84375 L 213.710938 175.015625 L 216.507812 181.714844 C 217.472656 183.886719 219.671875 185.992188 222.03125 186.277344 C 222.03125 186.277344 241.59375 185.921875 246.09375 185.675781 C 250.832031 185.417969 256.128906 184.53125 256.246094 181.289062 C 256.417969 176.640625 252.03125 176.300781 247.769531 175.992188 Z M 247.769531 175.992188 "/></g><g clip-rule="nonzero" clip-path="url(#clip5)"><g clip-rule="nonzero" clip-path="url(#clip6)"><g clip-rule="nonzero" clip-path="url(#clip7)"><g clip-rule="nonzero" clip-path="url(#clip8)"><path style=" stroke:none;fill-rule:nonzero;fill:rgb(92.939758%,10.978699%,14.118958%);fill-opacity:1;" d="M 273.097656 164.070312 C 269.324219 161.21875 264.617188 163.148438 264.617188 163.148438 C 264.617188 163.148438 264.433594 158.066406 260.277344 155.804688 C 256.125 153.542969 251.4375 154.566406 248.804688 159.921875 C 244.941406 167.773438 250.917969 182.75 251.667969 183.230469 C 252.417969 183.714844 268.527344 182.980469 274.085938 176.222656 C 277.875 171.613281 276.875 166.921875 273.097656 164.070312 "/></g></g></g></g></g></svg>